<svg xmlns="http://www.w3.org/2000/svg" viewBox="0 0 64 64">
  <defs>
    <radialGradient id="bg" cx="35%" cy="30%" r="80%">
      <stop offset="0" stop-color="#302767"/>
      <stop offset="1" stop-color="#070a1b"/>
    </radialGradient>
    <linearGradient id="star" x1="0" y1="0" x2="1" y2="1">
      <stop stop-color="#fff"/>
      <stop offset=".55" stop-color="#c7b8ff"/>
      <stop offset="1" stop-color="#e9c97b"/>
    </linearGradient>
  </defs>
  <rect width="64" height="64" rx="18" fill="url(#bg)"/>
  <circle cx="32" cy="32" r="25" fill="none" stroke="#a992ff" stroke-opacity=".38"/>
  <path d="M32 11c1.5 12.5 4 18.3 14.5 21C36 34.7 33.5 40.5 32 53c-1.5-12.5-4-18.3-14.5-21C28 29.3 30.5 23.5 32 11Z" fill="url(#star)"/>
  <path d="M47 14c.5 4.7 1.7 6.8 5.5 8-3.8 1.2-5 3.3-5.5 8-.5-4.7-1.7-6.8-5.5-8 3.8-1.2 5-3.3 5.5-8Z" fill="#e9c97b"/>
  <circle cx="17" cy="17" r="1.5" fill="#8fc7ff"/>
</svg>
